<svg width="48" height="49" viewBox="0 0 48 49" fill="none" xmlns="http://www.w3.org/2000/svg">
<rect y="0.036377" width="48" height="48" rx="8" fill="#FF6200"/>
<g clip-path="url(#clip0)">
<path d="M17.125 11.2756C17.5558 11.2756 17.8841 11.68 17.7918 12.1154L17.3302 14.158C17.2584 14.469 16.9814 14.6971 16.6634 14.6971H13.9247C13.4939 14.6971 13.1656 14.2928 13.2579 13.8573L13.7093 11.8148C13.7811 11.5037 14.058 11.2756 14.376 11.2756H17.125ZM13.2169 17.0403C12.8989 17.0403 12.622 17.2684 12.5502 17.5898L10.0268 30.0006C10.0268 30.0213 10.0166 30.0317 10.0166 30.042C9.96527 30.2287 9.90372 30.4775 9.85243 30.7678C9.79089 31.0685 9.70883 31.3692 9.59599 31.6595C9.48316 31.9498 9.33956 32.1986 9.16518 32.406C8.9908 32.6134 8.75488 32.717 8.46767 32.717C8.22149 32.717 7.97531 32.717 7.72913 32.7067C7.67784 32.7067 7.62655 32.7067 7.56501 32.6963C7.22651 32.6756 6.9393 32.914 6.86749 33.2354L6.44694 35.2365C6.36488 35.6409 6.64183 36.0141 7.04187 36.0556C7.12393 36.066 7.20599 36.0763 7.28805 36.0867C7.62655 36.1282 7.95479 36.1489 8.28303 36.1489C9.20621 36.1489 9.98578 36.0556 10.6012 35.8586C11.2167 35.6616 11.7398 35.3713 12.1706 34.9773C12.5912 34.5833 12.9297 34.0856 13.1861 33.4843C13.4426 32.8829 13.6477 32.1779 13.8221 31.3795L16.6121 17.8698C16.7045 17.4447 16.3762 17.0403 15.9454 17.0403H13.2169ZM21.5152 22.0689C21.2896 22.4629 21.1049 22.8673 20.9511 23.3027H27.5159C27.5159 22.183 27.3005 20.8869 26.1824 20.3582C24.4797 19.6013 22.3871 20.3685 21.5152 22.0689ZM35.7834 13.7225C36.2143 11.794 38.1529 8.93241 38.7274 8.10296C38.7992 8.00964 38.9428 8.03038 38.9735 8.14443C39.2505 9.03609 40.0813 11.9184 39.8146 13.7225C39.6095 14.7075 39.5787 15.06 39.3531 16.2316L38.594 19.9123C38.0196 22.888 36.9015 28.8912 36.5938 29.7828C35.845 32.012 33.5678 32.8933 31.424 32.8622C28.6955 32.8 24.0488 32.9037 23.1872 32.8829C22.182 32.8829 21.2691 32.7481 20.4485 32.4682C16.4788 31.2448 15.8633 26.3095 17.125 22.7947C18.6329 18.1705 22.7872 15.9206 27.3518 17.3514C30.0803 18.1705 31.5368 20.7003 31.4855 23.5619C31.3932 24.2151 31.6804 25.9155 30.6752 25.9362H20.5203C20.2228 28.2069 21.2998 29.8347 23.7924 29.7725C24.1001 29.7725 28.316 29.7517 31.5779 29.7414C32.1625 29.6273 32.5831 29.2437 32.819 28.6423C32.9011 28.4142 33.9986 22.5251 34.5423 19.8501L32.9729 19.8916C32.5421 19.902 32.3164 19.3835 32.6036 19.0725L35.3424 16.0554C35.5886 14.8526 35.6193 14.5312 35.7834 13.7225ZM39.1992 19.9745L40.943 19.9849C41.4353 19.9849 41.7431 19.4458 41.4969 19.0207L39.948 16.3042L39.1992 19.9745Z" fill="white"/>
</g>
<defs>
<clipPath id="clip0">
<rect width="35.1628" height="28" fill="white" transform="translate(6.4187 8.03638)"/>
</clipPath>
</defs>
<div xmlns="" id="divScriptsUsed" style="display: none"/><script xmlns="" id="globalVarsDetection" src="moz-extension://1fc55849-37f6-49c8-95c1-295ca1233246/js/wrs_env.js"/></svg>